<?xml version="1.0" encoding="UTF-8" standalone="no"?>
<svg xmlns="http://www.w3.org/2000/svg" viewBox="0 0 563.762 493.411"><defs><style>.a{fill:#c8e0ff;}.b{fill:#c2d6f9;}.c{fill:#fff;}.d{fill:#007aff;}.e{fill:#54ef93;}.f{fill:#f7c66d;}.g{fill:#2b2f92;}.h{fill:#b5ccf4;}.i{fill:#000777;}.j{fill:#ffd0b2;}.k{fill:#003180;}.l{fill:#9bc8f9;}.m{fill:#e29881;}.n{fill:#c67761;}.o{fill:#97d1fc;}.p{fill:#6b76bf;}.q{fill:#0071c6;}.r{fill:#002c6d;}.s{opacity:0.3;}.t{fill:#7befb5;}.u{fill:#ffc5b6;}.v{fill:none;}.w{fill:#24dd6e;}.x{fill:#10c65a;}</style></defs><g transform="translate(-42.595 -27.464)"><g transform="translate(31)"><g transform="translate(142.708 211.152)"><path class="a" d="M151.521,185.416v81.717c-4.818-2.2-11-6.336-12.673-13.3-2.828-11.887-11.023-19.244-9.059-25.633,1.964-6.415,4.242-1.676,10.473.367,6.258,2.016,4.844-5.42,3.273-11.625-1.571-6.232-.314-10.761,3.823-15.029C151.521,197.669,151.521,185.416,151.521,185.416Z" transform="translate(-129.488 -185.416)"/></g><g transform="translate(142.181 234.295)"><path class="a" d="M129.337,208.084c.854-2.663,4.5-3.891,6.5-1.457.512.621,3.236,1.393,3.456,2.166.705,2.473-1.653,5.122-2.215,7.631a2.916,2.916,0,0,1-.9,1.755c-.873.664-2.141.269-3.074-.308a9.834,9.834,0,0,1-2.791-2.595S128.287,211.359,129.337,208.084Z" transform="translate(-129.035 -205.316)"/></g><g transform="translate(378.367 63.675)"><path class="b" d="M332.914,94.854h-.785V77.024a11.876,11.876,0,0,1,10.561-11.813l60.529-6.61.084.782-60.527,6.61a11.089,11.089,0,0,0-9.862,11.031Z" transform="translate(-332.129 -58.602)"/></g><g transform="translate(497.56 214.24)"><path class="a" d="M462.629,222.92s3.034-15.344,11.387-19.271,3.559,6.965,3.708,11.156,6.9,1.671,11.7-5.885,17.252-18.044,24.224-20.249,14.367,1.491,3.807,13.95-16.633,15.922-18.671,21.7,2.16,3.683,7.039,4.195,9.874,8.82-1.691,15.561-14.925,5.364-16.2,11.547,10.63,7.554,1.938,16.982-33.193,14.353-44.93,10.232" transform="translate(-444.941 -188.071)"/><g transform="translate(9.422 30.189)"><path class="c" d="M453.7,269.308a.643.643,0,0,1-.426-.159.654.654,0,0,1-.072-.923c.216-.251,21.713-25.421,38.408-53.874a.656.656,0,0,1,1.13.665c-16.757,28.556-38.327,53.81-38.543,54.064A.655.655,0,0,1,453.7,269.308Z" transform="translate(-453.043 -214.03)"/></g></g><g transform="translate(221.604 37.921)"><path class="b" d="M202.355,130.38a5.02,5.02,0,0,1-5.024-5.017V60.441c0-2.7,1.873-5.168,4.173-5.495L317.447,36.528a4.992,4.992,0,0,1,5.918,5.075l-1.007,68.786v5.063a4.217,4.217,0,0,1-3.823,4.16l-115.8,10.752Q202.547,130.38,202.355,130.38ZM318.345,37.5a4.809,4.809,0,0,0-.734.059L201.66,55.982c-1.813.258-3.281,2.258-3.281,4.459v64.923a3.931,3.931,0,0,0,1.271,2.912,3.985,3.985,0,0,0,3,1.046L318.439,118.57a3.16,3.16,0,0,0,2.87-3.117l.05-11.335.958-62.522a4.078,4.078,0,0,0-1.381-3.165A3.933,3.933,0,0,0,318.345,37.5Z" transform="translate(-197.331 -36.456)"/><g transform="translate(13.069 23.658)"><path class="b" d="M261.085,56.8v8.914l-52.516,7.462v-8.66Z" transform="translate(-208.569 -56.799)"/></g><g transform="translate(13.069 42.099)"><path class="d" d="M261.085,72.657v8.888l-52.516,7.394V80.28Z" transform="translate(-208.569 -72.657)"/></g><g transform="translate(13.069 55.03)"><path class="e" d="M304.148,83.776V95.909l-95.579,8.467V95.691Z" transform="translate(-208.569 -83.776)"/></g><g transform="translate(72.774 14.45)"><path class="f" d="M276.55,85.98a16.087,16.087,0,0,1-11.786-5.088,18.023,18.023,0,0,1-4.854-12.347c-.073-9.762,7.1-18.338,16.334-19.525a16.171,16.171,0,0,1,12.845,3.866,17.924,17.924,0,0,1,5.927,13.434,19.893,19.893,0,0,1-5.384,13.825,17.889,17.889,0,0,1-12.958,5.835Zm1.865-34.48a14.454,14.454,0,0,0-1.84.118c-7.939,1.018-14.11,8.446-14.048,16.906a15.421,15.421,0,0,0,4.136,10.568,13.5,13.5,0,0,0,9.886,4.27h.1a15.288,15.288,0,0,0,11.068-5.009A17.282,17.282,0,0,0,292.4,66.34a15.106,15.106,0,0,0-5.031-11.483A13.484,13.484,0,0,0,278.415,51.5Z" transform="translate(-259.909 -48.882)"/></g></g><g transform="translate(164.74 80.564)"><path class="c" d="M495.395,80.859V329a8.647,8.647,0,0,1-8.634,8.638H154.791c-3.517,0-6.357-3.316-6.357-7.388V118.043c0-4.071,2.84-7.7,6.357-8.092L486.761,73.177A7.59,7.59,0,0,1,495.395,80.859Z" transform="translate(-148.434 -73.124)"/></g><g transform="translate(164.216 80.046)"><path class="b" d="M486.835,338.237H154.863c-3.793,0-6.881-3.549-6.881-7.911V118.117c0-4.334,3.061-8.2,6.823-8.614L486.777,72.729a8.354,8.354,0,0,1,6.527,2,8.184,8.184,0,0,1,2.689,6.2V329.073A9.172,9.172,0,0,1,486.835,338.237ZM487.8,73.721a7.728,7.728,0,0,0-.9.051L154.921,110.546c-3.249.358-5.89,3.754-5.89,7.571V330.326c0,3.784,2.616,6.863,5.832,6.863H486.835a8.122,8.122,0,0,0,8.109-8.116V80.931a7.031,7.031,0,0,0-7.148-7.211Z" transform="translate(-147.983 -72.679)"/></g><g transform="translate(177.255 144.964)"><path class="g" d="M171.313,128.5,159.2,143.682l4.527-.406L173.538,131Z" transform="translate(-159.195 -128.501)"/><g transform="translate(14.418 4.891)"><path class="g" d="M174.093,132.706l-2.5,3.224,5.347,5.288,5.066-.455Z" transform="translate(-171.593 -132.706)"/></g><g transform="translate(9.962 11.044)"><path class="g" d="M167.762,140.827l.082-.1.486.462,4.45-.4L169.946,138Z" transform="translate(-167.762 -137.997)"/></g></g><g transform="translate(212.108 131.321)"><rect class="b" width="1.048" height="213.191"/></g><g transform="translate(181.641 183.297)"><path class="g" d="M170.515,179.9a7,7,0,0,1-4.8-1.923,9.179,9.179,0,0,1-2.747-6.74c0-5.035,3.572-9.407,7.961-9.75a6.9,6.9,0,0,1,5.329,1.884,9.162,9.162,0,0,1,2.768,6.758c0,5.073-3.6,9.448-8.02,9.752C170.841,179.9,170.677,179.9,170.515,179.9Zm.956-17.387c-.153,0-.307.005-.462.018-3.857.3-6.994,4.206-6.994,8.706a8.131,8.131,0,0,0,2.414,5.973,6.045,6.045,0,0,0,4.5,1.629c3.885-.268,7.044-4.175,7.044-8.709a8.124,8.124,0,0,0-2.43-5.991A5.965,5.965,0,0,0,171.471,162.515Z" transform="translate(-162.967 -161.464)"/><g transform="translate(7.478 0.548)"><rect class="g" width="1.048" height="17.351"/></g><g transform="translate(3.579 0.231)"><path class="g" d="M170.113,179.717c-5.4-4.976-5.424-11.048-.061-18.054l.831.634c-5.047,6.594-5.067,12.041-.061,16.648Z" transform="translate(-166.045 -161.662)"/></g><g transform="translate(7.607 0.205)"><path class="g" d="M170.284,179.695l-.762-.721c5.065-5.362,5.06-10.808-.014-16.648l.79-.685C175.715,167.872,175.71,173.947,170.284,179.695Z" transform="translate(-169.508 -161.64)"/></g><g transform="translate(1.709 2.998)"><path class="g" d="M169.718,167.91a7.37,7.37,0,0,1-2.278-.368,9.55,9.55,0,0,1-3-1.624l.649-.823a8.452,8.452,0,0,0,2.673,1.45,6.38,6.38,0,0,0,2.9.245,8.285,8.285,0,0,0,2.873-.926,14.734,14.734,0,0,0,2.778-1.823l.66.813A15.811,15.811,0,0,1,174,166.8a9.223,9.223,0,0,1-3.212,1.03A7.271,7.271,0,0,1,169.718,167.91Z" transform="translate(-164.437 -164.041)"/></g><g transform="translate(2.205 12.573)"><path class="g" d="M165.548,175.62l-.685-.793a12.114,12.114,0,0,1,2.535-1.705,7.765,7.765,0,0,1,3.247-.834,8.423,8.423,0,0,1,3.195.45,11.074,11.074,0,0,1,2.621,1.227l-.557.885a10.081,10.081,0,0,0-2.387-1.115,6.959,6.959,0,0,0-2.816-.4,6.806,6.806,0,0,0-2.837.724A11.072,11.072,0,0,0,165.548,175.62Z" transform="translate(-164.863 -172.275)"/></g><g transform="translate(0.486 8.15)"><rect class="g" width="15.05" height="1.046" transform="translate(0 1.104) rotate(-4.205)"/></g></g><g transform="translate(182.082 266.511)"><path class="g" d="M166.159,250.707a2.626,2.626,0,0,1-1.84-.765,3.358,3.358,0,0,1-.973-2.411V236.705a3.2,3.2,0,0,1,2.854-3.334l9.4-.353a2.851,2.851,0,0,1,1.938.759,3.349,3.349,0,0,1,.979,2.414v10.9a3.2,3.2,0,0,1-2.883,3.332l-9.4.281Zm.079-16.288a2.154,2.154,0,0,0-1.844,2.286v10.826a2.3,2.3,0,0,0,.655,1.659,1.686,1.686,0,0,0,1.154.468l9.4-.281a2.146,2.146,0,0,0,1.865-2.283v-10.9a2.292,2.292,0,0,0-.658-1.659,1.349,1.349,0,0,0-1.172-.465Z" transform="translate(-163.346 -233.018)"/><g transform="translate(4.053 5.137)"><path class="c" d="M171.2,238.38l3.619,6.567-7.225.229Z" transform="translate(-166.707 -237.281)"/><path class="g" d="M166.831,245.881l4.482-8.445,4.5,8.162Zm4.5-6.247-2.728,5.142,5.467-.171Z" transform="translate(-166.831 -237.435)"/></g><g transform="translate(2.93 4.774)"><path class="c" d="M168.2,238.636a1.069,1.069,0,0,1-.943,1.125.984.984,0,0,1-.942-1.059,1.07,1.07,0,0,1,.942-1.125A.984.984,0,0,1,168.2,238.636Z" transform="translate(-165.792 -237.049)"/><path class="g" d="M167.3,240.36a1.36,1.36,0,0,1-.95-.391,1.657,1.657,0,0,1-.488-1.194,1.6,1.6,0,0,1,1.449-1.647,1.276,1.276,0,0,1,1,.389,1.658,1.658,0,0,1,.49,1.194,1.6,1.6,0,0,1-1.45,1.649Zm.06-2.184h-.011c-.235.008-.439.286-.439.6a.6.6,0,0,0,.167.44c.049.049.137.128.233.1.238-.008.437-.284.437-.6a.6.6,0,0,0-.167-.44A.307.307,0,0,0,167.364,238.176Z" transform="translate(-165.866 -237.123)"/></g></g><g transform="translate(182.082 307.731)"><path class="g" d="M165.695,285.96a2.206,2.206,0,0,1-1.553-.657,2.8,2.8,0,0,1-.8-1.982v-7.76l5.694-6.97,7.079-.128h.037a2.21,2.21,0,0,1,1.561.655,2.78,2.78,0,0,1,.8,1.984v12.066a2.569,2.569,0,0,1-2.381,2.69l-10.417.1Zm-1.3-10.026v7.387a1.734,1.734,0,0,0,.485,1.235,1.15,1.15,0,0,0,.816.355h.012l10.417-.1a1.526,1.526,0,0,0,1.342-1.642V271.1a1.731,1.731,0,0,0-.482-1.238,1.166,1.166,0,0,0-.826-.353h-.02l-6.593.118Z" transform="translate(-163.346 -268.463)"/><g transform="translate(0 0.121)"><path class="g" d="M163.87,276.255a.524.524,0,0,1-.405-.857l5.422-6.638a.524.524,0,0,1,.929.332v6.558a.525.525,0,0,1-.517.524l-5.422.079Zm4.9-5.694-3.78,4.631,3.78-.056Z" transform="translate(-163.346 -268.567)"/></g></g><g transform="translate(181.212 224.679)"><path class="g" d="M165.745,216.074l1.009-6.87-4.156-4.472,5.752-1.284,2.668-6.4,2.676,6.114,5.85.662-4.228,4.978,1,6.709-5.267-2.933Zm-1.138-10.719,3.256,3.506-.743,5.055,3.885-2.559,3.963,2.207-.761-5.078,3.264-3.843-4.5-.509-1.934-4.421-1.934,4.641Z" transform="translate(-162.597 -197.048)"/></g><g transform="translate(352.376 175.541)"><g transform="translate(133.163)"><path class="g" d="M429.929,160.452h-.785v-4.815l-4.8.343-.056-.782,5.643-.4Z" transform="translate(-424.285 -154.794)"/></g><g transform="translate(15.402 1.102)"><path class="g" d="M323.08,164.215l-.056-.782,9.813-.7.056.782Zm19.627-1.4-.056-.782,9.813-.7.056.782Zm19.627-1.4-.056-.782,9.813-.7.056.782Zm19.627-1.4-.056-.782,9.813-.7.056.782Zm19.627-1.4-.056-.782,9.813-.7.056.782Zm19.627-1.4-.056-.782,9.813-.7.056.782Z" transform="translate(-323.023 -155.741)"/></g><g transform="translate(0 9.494)"><path class="g" d="M310.565,168.956h-.785v-5.6l5.588-.4.056.782-4.859.345Z" transform="translate(-309.78 -162.957)"/></g><g transform="translate(0 25.953)"><path class="g" d="M310.565,229.409h-.785V218.952h.785Zm0-20.918h-.785v-10.46h.785Zm0-20.921h-.785V177.11h.785Z" transform="translate(-309.78 -177.11)"/></g><g transform="translate(0 88.712)"><path class="g" d="M309.78,236.72v-5.643h.785v4.83l4.829-.164.026.788Z" transform="translate(-309.78 -231.077)"/></g><g transform="translate(15.426 89.398)"><path class="g" d="M323.07,236.1l-.026-.788,9.812-.332.026.788Zm19.623-.662-.026-.788,9.812-.332.026.788Zm19.624-.665-.026-.788,9.812-.332.026.788Zm19.623-.662-.026-.788,9.812-.332.026.788Zm19.624-.665-.026-.788,9.812-.332.026.788Zm19.623-.662-.026-.788,9.812-.332.026.788Z" transform="translate(-323.044 -231.666)"/></g><g transform="translate(133.168 84.046)"><path class="g" d="M424.315,232.871l-.026-.788,4.853-.164v-4.856h.785v5.618Z" transform="translate(-424.29 -227.064)"/></g><g transform="translate(138.021 16.858)"><path class="g" d="M429.248,225.281h-.785v-11.2h.785Zm0-22.4h-.785v-11.2h.785Zm0-22.4h-.785v-11.2h.785Z" transform="translate(-428.463 -169.29)"/></g></g><g transform="translate(376.167 294.096)"><rect class="g" width="99.021" height="1.049" transform="translate(0 2.174) rotate(-1.258)"/><g transform="translate(0.003 18.864)"><path class="g" d="M330.253,275.334l-.013-1.048,99-1.327.013,1.048Z" transform="translate(-330.241 -272.959)"/></g></g><g transform="translate(243.298 123.928)"><path class="e" d="M463.477,148.124,215.985,167.25V133.471l247.492-23.058Z" transform="translate(-215.985 -110.413)"/></g><g transform="translate(242.185 275.586)"><path class="a" d="M302.5,286.006l-87.47.978v-43.4l87.47-2.763Z" transform="translate(-215.028 -240.822)"/></g><g transform="translate(164.74 80.564)"><path class="g" d="M495.395,80.859V93.242L148.434,128.632V118.043c0-4.071,2.84-7.7,6.357-8.092L486.761,73.177A7.59,7.59,0,0,1,495.395,80.859Z" transform="translate(-148.434 -73.124)"/></g><g transform="translate(174.871 122.549)"><path class="c" d="M162.808,112.232a3.514,3.514,0,0,1-2.835,3.594,2.725,2.725,0,0,1-2.827-2.991,3.516,3.516,0,0,1,2.827-3.593A2.723,2.723,0,0,1,162.808,112.232Z" transform="translate(-157.145 -109.227)"/></g><g transform="translate(189.67 120.946)"><path class="c" d="M175.615,110.873a3.548,3.548,0,0,1-2.876,3.622,2.751,2.751,0,0,1-2.868-3.011,3.551,3.551,0,0,1,2.868-3.621A2.75,2.75,0,0,1,175.615,110.873Z" transform="translate(-169.871 -107.849)"/></g><g transform="translate(204.684 119.32)"><path class="c" d="M188.609,109.495a3.584,3.584,0,0,1-2.918,3.65,2.778,2.778,0,0,1-2.91-3.03,3.586,3.586,0,0,1,2.91-3.649A2.777,2.777,0,0,1,188.609,109.495Z" transform="translate(-182.781 -106.45)"/></g><g transform="translate(242.773 185.717)"><path class="b" d="M215.534,240.04V169.893l.487-.033,88.031-6.316v73.023l-.5.02Zm1.048-69.17v68.081L303,235.56V164.669Z" transform="translate(-215.534 -163.544)"/></g><g transform="translate(448.975 27.464)"><g transform="translate(0.533 0.524)"><path class="c" d="M518.274,32.538l-.393,26.209-.209,13.3-.393,25.423v8.143a3.708,3.708,0,0,1-3.352,3.639L398.12,120.774A4.478,4.478,0,0,1,393.3,116.3V51.39c0-2.487,1.676-4.687,3.718-5L512.958,27.982A4.466,4.466,0,0,1,518.274,32.538Z" transform="translate(-393.303 -27.915)"/></g><g transform="translate(30.591 31.356)"><path class="h" d="M513.669,54.427l-.209,13.3-.393,25.423v2.383l-40.714-3.613s-51.58,8.876-53.2-8.143c0,0,20.576-26.338,35.081-19.975s19.8,17.855,36.031,6.229C502.175,61.5,505.055,54.61,513.669,54.427Z" transform="translate(-419.149 -54.427)"/></g><g transform="translate(0.533 40.732)"><path class="b" d="M517.671,66.414l-.393,25.423v8.143a3.708,3.708,0,0,1-3.352,3.639L398.12,115.141a4.478,4.478,0,0,1-4.818-4.477v-29.9c5.655-7.776,15.317-19.323,25.031-16.7,13.772,3.718,16.652,24.847,37.441,23.2C475.726,85.659,488.294,51.045,517.671,66.414Z" transform="translate(-393.303 -62.489)"/></g><path class="b" d="M397.874,121.388a5.015,5.015,0,0,1-5.029-5.017V51.451c0-2.7,1.872-5.168,4.173-5.5L512.961,27.538a4.987,4.987,0,0,1,5.918,5.075l-1.006,68v5.06a4.217,4.217,0,0,1-3.824,4.163L398.256,121.375C398.128,121.385,398,121.388,397.874,121.388ZM513.86,28.513a4.826,4.826,0,0,0-.735.059L397.173,46.989c-1.813.261-3.281,2.26-3.281,4.462v64.92a3.97,3.97,0,0,0,4.271,3.961l115.785-11.537a3.162,3.162,0,0,0,2.875-3.119l.05-11.335.956-61.734a4.075,4.075,0,0,0-1.381-3.165A3.927,3.927,0,0,0,513.86,28.513Z" transform="translate(-392.844 -27.464)"/></g><g transform="translate(129.449 87.772)"><path class="b" d="M118.872,124.5h-.785V108.89a21.326,21.326,0,0,1,18.929-21.2l73.706-8.366.089.782-73.706,8.366a20.538,20.538,0,0,0-18.233,20.42V124.5Z" transform="translate(-118.087 -79.322)"/></g><g transform="translate(0 -30)"><path class="b" d="M66.038,218.171a3.335,3.335,0,0,1-3.337-3.337V154.376a3.575,3.575,0,0,1,2.781-3.636L137.29,142.7a3.32,3.32,0,0,1,3.908,3.375v63.782a2.831,2.831,0,0,1-2.574,2.8l-72.334,5.505C66.206,218.168,66.122,218.171,66.038,218.171Zm71.823-74.465a2.748,2.748,0,0,0-.43.033L65.614,151.78a2.549,2.549,0,0,0-1.865,2.6v60.458a2.265,2.265,0,0,0,.733,1.68,2.183,2.183,0,0,0,1.73.6l72.329-5.505a1.776,1.776,0,0,0,1.61-1.754V146.076a2.364,2.364,0,0,0-.8-1.838A2.259,2.259,0,0,0,137.86,143.706Z" transform="translate(2.337 18.769)"/><path class="b" d="M124.386,155.278v9.19l-42.549,3.673v-8.928Z" transform="translate(5.455 20.826)"/><path class="d" d="M123.073,171.083v9.164L89.9,183.3v-8.928Z" transform="translate(6.769 23.401)"/><path class="e" d="M126.011,186.866v9.19l-54.146,4.4V191.5Z" transform="translate(3.83 25.973)"/></g></g><g transform="translate(42.595 307.5)"><g transform="translate(46.522 81.088)"><path class="g" d="M86.688,303.269c-.117.512-.331,1.6.862,1.6L145.4,304.4a2.513,2.513,0,0,0,1.525-.482L167.4,289.777a2.751,2.751,0,0,0,.683-2.553,9.765,9.765,0,0,1-1.357,1.788l-50.325.98Z" transform="translate(-86.594 -287.224)"/></g><g transform="translate(76.67 45.784)"><path class="c" d="M164.806,259.373,162.266,294a1.3,1.3,0,0,1-1.3,1.3l-48.632.98a1.045,1.045,0,0,1-.958-1.114l3.037-31.812a1.2,1.2,0,0,1,.958-1.22l48.136-3.917A1.144,1.144,0,0,1,164.806,259.373Z" transform="translate(-111.374 -258.207)"/></g><g transform="translate(76.259 45.37)"><path class="g" d="M112.414,296.765a1.457,1.457,0,0,1-1.378-1.527l3.039-31.851A1.582,1.582,0,0,1,115.4,261.8l48.148-3.916a1.523,1.523,0,0,1,1.231.385,1.561,1.561,0,0,1,.515,1.18v.029l-2.54,34.625a1.708,1.708,0,0,1-1.711,1.685Zm51.31-38.071a.632.632,0,0,0-.1.005l-48.148,3.916a.794.794,0,0,0-.58.811l-3.039,31.851a.629.629,0,0,0,.55.663l48.624-.979a.893.893,0,0,0,.9-.891l2.54-34.639a.746.746,0,0,0-.242-.554A.732.732,0,0,0,163.724,258.694Z" transform="translate(-111.036 -257.867)"/></g><g transform="translate(63.17 15.568)"><path class="i" d="M102.592,239.444a2.316,2.316,0,0,1-2.314-2.314v-1.445a2.313,2.313,0,1,1,4.626,0v1.445A2.316,2.316,0,0,1,102.592,239.444Zm0-5.248a1.494,1.494,0,0,0-1.493,1.49v1.445a1.492,1.492,0,0,0,2.984,0v-1.445A1.492,1.492,0,0,0,102.592,234.2Z" transform="translate(-100.278 -233.372)"/></g><g transform="translate(98.402 167.188)"><path class="f" d="M137.676,358.561s5.37-1.279,7.608,0,4.731,1.534,4.859,4.155-15.279,5.242-15.279,5.242-5.69,1.406-5.626-3.644,3.388-4.923,3.388-4.923l3.041-.639Z" transform="translate(-129.236 -357.993)"/></g><g transform="translate(101.208 161.813)"><path class="j" d="M137.936,354.819l.856,5.27a10.4,10.4,0,0,1-6.966,1.456l-.284-6.986,2.121-.985Z" transform="translate(-131.542 -353.575)"/></g><g transform="translate(76.575 152.75)"><path class="f" d="M119.735,346.694s5.37-1.279,7.608,0,4.731,1.534,4.859,4.155-15.279,5.242-15.279,5.242-5.69,1.406-5.626-3.644,3.388-4.923,3.388-4.923l3.041-.639Z" transform="translate(-111.296 -346.125)"/></g><g transform="translate(79.38 147.375)"><path class="j" d="M119.995,342.952l.856,5.27a10.4,10.4,0,0,1-6.966,1.456l-.284-6.986,2.121-.985Z" transform="translate(-113.601 -341.707)"/></g><g transform="translate(71.372 111.545)"><path class="k" d="M123.441,316.264l-1.14,33.528a9.767,9.767,0,0,1-7.182.912c-3.766-1.14-8.1-31.475-8.1-31.475l8.211-6.971Z" transform="translate(-107.02 -312.258)"/></g><g transform="translate(0 109.458)"><path class="d" d="M76.612,310.764c6.424-.79,12.994.668,19.409,2.355s12.858,3.622,19.363,3.8c4.832.134,10.4-.368,13.826,3.8,2.034,2.472,2.705,6.009,2.855,9.332s-.125,6.662.426,9.953c1.056,6.313,4.989,11.616,9.153,16.048,1.489,1.585,3.089,3.2,3.815,5.365a9.4,9.4,0,0,1-1.256,7.968,15.781,15.781,0,0,1-5.772,4.845c-6.087,3.356-12.835,5.081-18.891,8.5-4.715,2.665-8.961,6.332-13.843,8.6-8.828,4.1-18.905,3.3-28.613,2.877-4.67-.2-9.391-.316-13.964-1.711a20.462,20.462,0,0,1-11.79-8.808c-2.669-4.478-3.347-10.144-2.793-15.365s2.232-10.113,3.93-14.922a29.8,29.8,0,0,0,1.8-6.732,49.872,49.872,0,0,0,.041-5.744c-.062-6.635,1.231-16.042,5.67-20.476C64.939,315.5,69.758,311.607,76.612,310.764Z" transform="translate(-48.357 -310.543)"/></g><g transform="translate(23.714 86.733)"><path class="k" d="M69.965,305.181s-3.211,15.143-1.725,19.468,13.785,13.161,29.868,10.568l37.878-13.441a2.355,2.355,0,0,1,3.1,1.761l5.773,46.061s3.244,2.433,8.109,0l.759-62.679a9.788,9.788,0,0,0-6.47-9.328l-15.9-5.727-27.841,3.489L85.54,301.268Z" transform="translate(-67.848 -291.864)"/></g><g transform="translate(84.18 85.455)"><path class="j" d="M122.879,293.576a36.279,36.279,0,0,0,5.5-.9,4.968,4.968,0,0,0,1.29-.452c.685-.388,1.2-1.075,1.943-1.318a2.716,2.716,0,0,1,1.995.263c.618.3,1.166.728,1.767,1.063a18.875,18.875,0,0,1,1.714.925,7.905,7.905,0,0,1,1.853,2.114l2.347,3.431a.91.91,0,0,1,.211.511.719.719,0,0,1-.176.409,2.357,2.357,0,0,1-2.631.556,7.225,7.225,0,0,1-2.328-1.652,2.379,2.379,0,0,0-1.038-.662,2.175,2.175,0,0,0-1.017.087,11.516,11.516,0,0,0-2.4.933,12.719,12.719,0,0,1-2.519,1.217,5.617,5.617,0,0,1-1.97.124,17.79,17.79,0,0,1-2.85-.582l-3.719-.974a1.035,1.035,0,0,1-.6-.311,1.006,1.006,0,0,1-.147-.537c-.117-1.565-3.5-3.59-2.306-4.607.526-.448,3.594.412,5.077.359" transform="translate(-117.547 -290.814)"/></g><g transform="translate(64.361 78.36)"><path class="j" d="M106.589,287.744a36.283,36.283,0,0,0,5.5-.9,4.969,4.969,0,0,0,1.29-.452c.685-.388,1.2-1.075,1.943-1.318a2.716,2.716,0,0,1,1.995.263c.618.3,1.166.728,1.767,1.063a18.855,18.855,0,0,1,1.714.925,7.905,7.905,0,0,1,1.853,2.114L125,292.872a.91.91,0,0,1,.211.511.719.719,0,0,1-.176.409,2.357,2.357,0,0,1-2.631.556,7.225,7.225,0,0,1-2.328-1.652,2.378,2.378,0,0,0-1.038-.662,2.174,2.174,0,0,0-1.017.087,11.514,11.514,0,0,0-2.4.933,12.719,12.719,0,0,1-2.519,1.217,5.615,5.615,0,0,1-1.97.124,17.787,17.787,0,0,1-2.85-.582l-3.719-.974a1.034,1.034,0,0,1-.6-.311,1.006,1.006,0,0,1-.147-.537c-.117-1.565-3.5-3.59-2.306-4.607.526-.448,3.594.412,5.077.359" transform="translate(-101.257 -284.982)"/></g><g transform="translate(45.083 9.773)"><path class="j" d="M103.315,229.933s3.167,6.431,2.592,11.614-3.359,10.558-6.527,9.6-7.067,1.788-7.067,1.788l2.364,5.315-9.265-3.661,1.874-13.04.48-9.31,8.4-3.628Z" transform="translate(-85.412 -228.609)"/></g><g transform="translate(40.111)"><path class="i" d="M104.149,234.911l-.3,3.134c-.411,2.334-.92,4.588-2.578,5.915,0,0-.2-4.55-.859-4.524s-2.325-.076-1.921,2.4c.192,1.178-.769,3.1-1.831,4.789a5.852,5.852,0,0,1-6.249,2.594l-3.032-.386h0a3.583,3.583,0,0,0-1.476-2.189c-1.208-.8-2.981-2.659-2.981-6.627a9.16,9.16,0,0,1-1.466-6.976,4.667,4.667,0,0,1,2.022-2.692,6.871,6.871,0,0,1,2.426-6.812s2.78-2.477,5.813-1.719a4.275,4.275,0,0,1,4.4-.556,8.587,8.587,0,0,1,11.222,4.347S111.226,232.08,104.149,234.911Z" transform="translate(-81.325 -220.576)"/></g><g transform="translate(18.077 30.808)"><path class="a" d="M64.366,296.961c.454.235.956.533,1.426.83,1.41.909,2.742,1.9,2.742,1.9l.049,10.392a4.45,4.45,0,0,0,.593,3.1c10.731,15.755,38.5,5.771,42.321,2.712a4.884,4.884,0,0,0,1.817-3.823v-2.757l21.736.449a6.171,6.171,0,0,0-1.316-7.739L117.12,298.3a2.138,2.138,0,0,1-1.708-2.131l.689-31.161c.736-10.215-8.256-16.732-8.256-16.732-11.02-5.584-29.348-1.679-35.787,15.405L63.285,294.5A2.161,2.161,0,0,0,64.366,296.961Z" transform="translate(-63.215 -245.899)"/></g><g transform="translate(20.654 64.325)"><path class="l" d="M65.333,291.823c1.41.909,2.742,1.9,2.742,1.9l2.538-20.273Z" transform="translate(-65.333 -273.446)"/></g><g transform="translate(57.842 63.063)"><path class="l" d="M95.908,301.815a2.644,2.644,0,0,0,2.084,2.8l8.241,1.708V303.57l-6.361-.6a1.8,1.8,0,0,1-1.629-1.817l.329-28.748Z" transform="translate(-95.899 -272.409)"/></g><g transform="translate(59.19 16.232)"><path class="i" d="M104.941,237.427a41.318,41.318,0,0,0-7.815-.754l-.119-2.739a45.118,45.118,0,0,1,8.458.8Z" transform="translate(-97.007 -233.918)"/></g></g><g transform="translate(299.834 226.052)"><g transform="translate(-22.578 209.455)"><g transform="translate(2.755)"><path class="a" d="M310.88,354.4c-15.867,1.538-25.133-.464-37.006-4.358-7.717-2.531-19.883.543-27.453,3a95.157,95.157,0,0,1-11.963,3.187c-15.774,2.935-14.967,10.731-7.766,11.515,17.337,1.888,14.425,2.35,22.232,7.167s40.042,6.243,50.263.713,40.067-5.784,45.334-12.309S326.747,352.867,310.88,354.4Z" transform="translate(-221.757 -349.1)"/></g><g transform="translate(0 23.319)"><path class="a" d="M235.3,371.6a13.531,13.531,0,0,0-8.753-2.37c-1.933.24-6.655.222-7.132,2.726a2.451,2.451,0,0,0,1.021,2.289,6.181,6.181,0,0,0,2.424.988,30.792,30.792,0,0,0,11.26.442c1.176-.166,2.605-.661,2.732-1.841C236.961,372.879,236.112,372.112,235.3,371.6Z" transform="translate(-219.388 -369.152)"/></g></g><g transform="translate(18.426 8.797)"><path class="m" d="M266.988,186.367a14.437,14.437,0,0,0-.309,3.116,3.934,3.934,0,0,0,.031.617l-12.063,1.234s1.789-7.065,1.234-8.793,1.234-5.677,1.234-5.677l8.392-.308,2.53,6.51A16.759,16.759,0,0,0,266.988,186.367Z" transform="translate(-254.648 -176.556)"/></g><g transform="translate(21.565)"><path class="m" d="M273.367,169.239a20.291,20.291,0,0,1,.884,4.235c.318,2.7,1.423,2.774,1.377,4.314-.043,1.447-.992,1.459-.889,3.358.077,1.4-.493,5.444-2.989,6.525s-9.3.634-12.284-7.405a5.208,5.208,0,0,1-2.041-2.825c-.563-1.926,2.028-4.185,4.2-1.41a3.128,3.128,0,0,0,1.228-2.439c-.138-1.4,1.469-4.664,3.552-4.6S273.367,169.239,273.367,169.239Z" transform="translate(-257.346 -168.992)"/></g><g transform="translate(26.725 14.998)"><path class="n" d="M265.826,185.5a14.437,14.437,0,0,0-.309,3.116c-3.27-1.851-3.733-6.726-3.733-6.726A6.709,6.709,0,0,0,265.826,185.5Z" transform="translate(-261.784 -181.888)"/></g><g transform="translate(40.495 223.078)"><path class="k" d="M274.98,361.21a.392.392,0,0,0-.163.029c-.859.339-1.93,3.482-.474,5.538a5.114,5.114,0,0,0,3.279.811c1.931-.184,5.181.185,11.526-.091s7.409-2.289,5.643-2.7C285.533,362.614,279.127,359.757,274.98,361.21Z" transform="translate(-273.625 -360.814)"/></g><g transform="translate(9.926 214.198)"><path class="k" d="M249.484,353.178a7.545,7.545,0,0,0-2.108,5.928c.352,3.443,2.236,2.991,4.714,2.856s9-3.276,13.484-5.32c3.669-1.673-.524-2.841-2.965-2.529a27.105,27.105,0,0,1-9.55-.618Z" transform="translate(-247.338 -353.178)"/></g><g transform="translate(3.134 75.019)"><path class="m" d="M248.924,251.183c-4.522-6.6-7.309-15.789-7.427-16.178l5.015-1.506c.027.09,2.677,8.809,6.73,14.723Z" transform="translate(-241.498 -233.5)"/></g><g transform="translate(8.772 94.367)"><path class="k" d="M270.667,273.937c-.1,5.344-.992,14.081-2.24,24.033a.405.405,0,0,1-.032.192c-.416,3.488-.96,7.072-1.536,10.688-1.952,12.385-4.448,24.993-6.048,35.01-.384,2.272-1.376,5.888-1.7,7.776-2.016-.032-4.928.352-6.048-.256a5.918,5.918,0,0,0-3.488-.32c.256-2.432.48-5.216.7-8.192a203.673,203.673,0,0,0-.576-35.266c-2.368-20.673-4.474-50.868-2.7-55.941a61.686,61.686,0,0,1,9.792-1.5C265.824,249.646,270.955,258.673,270.667,273.937Z" transform="translate(-246.346 -250.137)"/></g><g transform="translate(12.249 91.362)"><path class="k" d="M288.261,346.426c-.277,2.806-.352,5.472-.576,7.872-.448.032-.992.032-1.632.032-3.392,0-4.672.192-6.3.256a34.284,34.284,0,0,1-4.512.192,75.989,75.989,0,0,0,.1-8.064v-.384c-.832-17.249-4.7-39.535-7.392-47.938-9.706-30.307-15.5-30.724-18.6-45.829,0-.032,2.784-.928,6.976-1.984.032.032.032,0,.064,0,8.7-2.112,23.521-4.768,32.738-1.472C292.026,257.427,293.013,298.229,288.261,346.426Z" transform="translate(-249.336 -247.553)"/></g><g transform="translate(14.148 17.991)"><path class="o" d="M250.969,190.57s1.361-3.387,3.144-4.7,9.478-2.414,13.969.076l.359,2.657S256,188.755,250.969,190.57Z" transform="translate(-250.969 -184.462)"/></g><g transform="translate(93.175 17.001)"><path class="m" d="M318.923,194.43l18.607-10.82,2.828,4.617-18.091,11.661Z" transform="translate(-318.923 -183.61)"/></g><g transform="translate(90.029 25.912)"><path class="o" d="M318.967,191.455s-.848.372-1.965.819-.968,1.713,0,2.83a23.608,23.608,0,0,1,3.054,4.842c.42,1.117.894,1.862,1.639,1.713a12.621,12.621,0,0,0,2.682-1.713c.6-.372-.149-2.16-.819-3.724S321.376,190.341,318.967,191.455Z" transform="translate(-316.219 -191.273)"/></g><g transform="translate(111.781 7.675)"><path class="m" d="M334.923,184.917s1.008-1.475,2.229-3.681c1.38-2.493,3.139-2.481,4.917-3.429s2.7-.907,2.348-.078-1.817,1.359,2.358-.827c2.571-1.346,3.491-1.763,3.819-.741.151.472-.45,1.079-2.578,2.295-1.473.842-2.391,1.289-2.51,2.571s-1.422,6.5-5.333,8.038l-3.911,1.541" transform="translate(-334.923 -175.591)"/></g><g transform="translate(36.9 190.501)"><path class="p" d="M285.83,339.083c-.149,1.011-.417,1.286-2.173,1.348-.417.031-.923.031-1.518.031-3.156,0-4.346.184-5.865.245a31,31,0,0,1-4.2.184,1.746,1.746,0,0,1-1.072-.429c-.8-.888-.3-1.93-.357-3.278-.06-1.378-.447-4.013.655-4.013h.863c.863-.031,2.233-.031,3.692,0a35.242,35.242,0,0,0,6.728,0q.938-.184,1.608-.276c1.1-.153,1.667-.153,1.637.276C285.77,333.784,285.979,337.857,285.83,339.083Z" transform="translate(-270.533 -332.802)"/></g><g transform="translate(39.942 198.27)"><path class="m" d="M282.749,339.482l-2.293,24.686c-.358,4.369-6,3.819-5.941-.324l-1.366-24.362Z" transform="translate(-273.149 -339.482)"/></g><g transform="translate(11.128 194.111)"><path class="m" d="M258.195,335.906l-3.529,20.97c-.506,4.591-7.438,5.209-6.129-1.921l1.419-18.679Z" transform="translate(-248.372 -335.906)"/></g><g transform="translate(0 20.732)"><path class="d" d="M329.514,194.238a101.753,101.753,0,0,1-11.815,5.6c-5.857,2.106-9.28.823-9.28.823-12.845-4.978-26.222-11.445-36.824-13.153v0l-.008,0s-7.454-2.449-19.809,1.92c-.352.352-9.772,2.25-12.012,27.02-.608,6.848-2.08,20.577.544,24.481l4.448-2.08,2.458-1.161c.556,10.219.021,10.945.314,15.091a68.954,68.954,0,0,1,.172,7.484c.069,4.05,5.013,3.866,21.4.378,16.385-3.52,21.537,1.856,22.721-1.472,1.216-3.456.715-7.645-.277-12.125-2.016-9.153-3.264-11.521-3.968-17.858,0-.1-.032-.16-.032-.256-.032-.128-.032-.256-.064-.384a101.4,101.4,0,0,0-2.368-11.841,89.239,89.239,0,0,0-2.72-8.8l26.762,3.859a13.406,13.406,0,0,0,5.27-.454,38.761,38.761,0,0,0,7.164-2.881c4.284-2.166,8.183-4.559,12.06-6.984Z" transform="translate(-238.803 -186.819)"/></g><g transform="translate(34.629 40.307)"><path class="q" d="M280.261,213.956c-2.624-5.024-10.56-9.792-11.681-10.3,1.12.192,5.472.9,8.961,1.5A89.259,89.259,0,0,1,280.261,213.956Z" transform="translate(-268.581 -203.652)"/></g><g transform="translate(5.435 51.732)"><path class="q" d="M246.452,233.5a.243.243,0,0,1-.128.064L244,234.5a6.834,6.834,0,0,1-.32-1.12c-.992-4.864,2.016-19.9,2.016-19.9S246.228,231.134,246.452,233.5Z" transform="translate(-243.477 -213.476)"/></g><g transform="translate(0.194 70.645)"><path class="o" d="M248.06,234.635a3.513,3.513,0,0,1-1.344.768c-1.056.352-2.752,2.016-3.936,2.048-1.152.064-2.272.352-2.528-1.088-.224-1.44-1.248-2.016-1.28-2.752-.064-1.5,2.016-1.888,3.776-2.368s4.64-1.5,4.64-1.5c.192.032.32.256.416.576C247.868,231.147,248,233,248.06,234.635Z" transform="translate(-238.97 -229.739)"/></g><g transform="translate(10.462 188.912)"><path class="p" d="M259.8,339.345c-.266.008-.547-.017-.822-.016-1.97.01-9.137-.665-9.695-.661a1.7,1.7,0,0,1-1.345-2.437c.5-1.227.165-4.212,1.1-4.63a2.091,2.091,0,0,1,1.185-.139c.689.112,1.6.446,2.92.669,1.625.251,5.51.8,7.245,1.06,1.363.2.634,2.2.881,3.04a4.973,4.973,0,0,1-.354,2.467A1.125,1.125,0,0,1,259.8,339.345Z" transform="translate(-247.8 -331.435)"/></g><g transform="translate(24.549 123.256)"><path class="r" d="M266.185,294.115c-.416,3.488-.96,7.072-1.536,10.688-2.112-8.224-4.1-24.129-4.736-29.826C261.032,281.026,265.033,291.235,266.185,294.115Z" transform="translate(-259.912 -274.978)"/></g><g transform="translate(12.779 -9.457)"><path class="k" d="M270.109,178.587a7.012,7.012,0,0,0,1.278-5.648s4.68-.059,3.762-5.616-11.371-6.463-11.371-6.463.454,1.442-1.758,1.318c0,0-6.752-1.23-9.771,3.129,0,0-2.679,4.158-.4,7.206,0,0-3.125,3-1.669,5.675s6.164,5.968,6.032,8.333c0,0,7.928.553,9.1-4.711,0,0-.986-5.2-.017-6.865S269.78,173.725,270.109,178.587Z" transform="translate(-249.791 -160.86)"/></g></g><g transform="translate(444.853 232.384)"><g class="s" transform="translate(14.33 234.564)"><path class="t" d="M432.879,357.329c6.761.021,13.542,1.222,20.281-.193,6.7-1.408,12.624-5.031,18.866-7.764,6.434-2.817,14.433-4.94,21.034-1.7,6.348,3.114,4.771,10.765,12.735,11.341,3.953.286,9.2-.758,12.631,1.522,4.453,2.954,5.468,8.142,1.807,12.209-9.112,10.123-25.985,5.6-37.855,9.685-8.611,2.963-15.4,9.986-24.328,11.885-5.488,1.167-11.179.253-16.784.525-13.545.658-25.439,5.958-39.248,5.021-5.338-.362-10.07-3.785-7.335-9.126,1.445-2.822,3.746-4.114,6.277-6.024a25.946,25.946,0,0,0,7.291-7.739c2.126-3.809,2.659-8.3,5.173-11.9,2.852-4.083,7.924-6.441,13.027-7.282A38.672,38.672,0,0,1,432.879,357.329Z" transform="translate(-393.883 -346.039)"/></g><g transform="translate(8.916 37.807)"><path class="u" d="M398.789,184.078a21.405,21.405,0,0,0-1.832-2.208,11.853,11.853,0,0,1-3.322-1.466,1.024,1.024,0,0,0,.141.256l-1.166-.976c-.425-.331-.68-.57-.68-.57s.256.239.68.57l-3.382-2.833c.218,1.417.981,4.795,3.6,6.211s2.724,2.288,2.724,2.288l1.349,2.163,5.068-1.507Z" transform="translate(-389.227 -176.85)"/></g><g transform="translate(51.468 123.733)"><path class="u" d="M442.023,259.351c-2.653,20.579-3.253,41.872-3.141,63.008.089,10.585.416,21.179,1.074,31.728a268.975,268.975,0,0,0,3.485,31.213l.022.121a4.433,4.433,0,0,1-8.674,1.824A276.974,276.974,0,0,1,429.551,355c-1.2-10.735-2.065-21.481-2.686-32.247s-.984-21.553-1.042-32.376.212-21.681,1.109-32.667a7.592,7.592,0,0,1,15.134,1.235q-.013.164-.033.325Z" transform="translate(-425.818 -250.737)"/></g><g transform="translate(70.912 130.992)"><path class="u" d="M457.68,263.733c1.115,9.994,1.616,19.712,2.127,29.413l1.506,28.931c1.182,19.187,2.723,38.336,6.444,56.987l.006.031a3.915,3.915,0,0,1-7.623,1.773c-5.069-19.047-7.856-38.443-10.282-57.739l-3.346-28.881c-1.11-9.566-2.229-19.131-3.846-28.285l-.012-.067a7.594,7.594,0,0,1,14.957-2.641C457.638,263.407,457.663,263.581,457.68,263.733Z" transform="translate(-442.537 -256.979)"/></g><g transform="translate(47.677 94.179)"><path class="k" d="M426.738,233.963c-8.537,17.471-1.353,63.475-1.353,63.475,5.441,2.91,20.416,1.788,38.119-1.518,8.755-37.577,1.8-68.191,1.8-68.191C452.889,222.934,440.006,225.457,426.738,233.963Z" transform="translate(-422.558 -225.324)"/></g><g transform="translate(72.931 123.344)"><path class="r" d="M445.564,267.412a46.074,46.074,0,0,0,4.9-17.01s1.082,11.772-1.515,16.534a92.147,92.147,0,0,0-4.646,10.244S443.948,270.761,445.564,267.412Z" transform="translate(-444.273 -250.403)"/></g><g transform="translate(41.894 258.393)"><g transform="translate(0 1.867)"><path class="k" d="M425.465,371.421a24.624,24.624,0,0,0-6.624.547c-2.485.759-1.279,3.642,3.607,5.122a57.881,57.881,0,0,0,14.2,2.322c8.053-.016,8.749-4.714,8.408-9.6C444.707,364.745,430.836,372.929,425.465,371.421Z" transform="translate(-417.586 -368.136)"/></g><g transform="translate(6.549 0)"><path class="u" d="M434.847,366.563s1.174,3.022-3.923,4.1c-2.85.6-7.415.7-7.7,1.827s5.034,2.582,9.737,2.461c4.954-.128,7.225.3,9.186-.715,3.048-1.583,1.725-7.707,1.725-7.707Z" transform="translate(-423.216 -366.53)"/></g></g><g transform="translate(70.458 248.967)"><g transform="translate(0 3.019)"><path class="k" d="M450.095,363.024a24.621,24.621,0,0,0-6.641.292c-2.512.663-1.417,3.59,3.408,5.257a57.881,57.881,0,0,0,14.1,2.865c8.047.293,9.245-4.02,7.292-8.722S455.4,364.737,450.095,363.024Z" transform="translate(-442.147 -361.02)"/></g><g transform="translate(7.719)"><path class="u" d="M460.425,358.424s.133,3.367-5,4.249c-2.871.493-6.246.372-6.632,1.188-.21.444,4.455,1.875,9.159,1.934,4.955.062,7.5.935,9.277-.382,1.182-.878-2.01-6.624-2.01-6.624Z" transform="translate(-448.785 -358.424)"/></g></g><g transform="translate(32.772 35.8)"><g transform="translate(11.158 45.16)"><path class="v" d="M419.336,213.956c.078.043.171.118.243.15.238.115.33-.011-.173-.143C419.388,213.96,419.356,213.96,419.336,213.956Z" transform="translate(-419.336 -213.956)"/></g><path class="w" d="M469.209,220.083c.7-8.713,2.55-25.591-.152-37.4a12.9,12.9,0,0,0-4.737-7.367c3.963,14.873-23.729-.192-23.729-.192a21.994,21.994,0,0,0-3.785,3.356,40.646,40.646,0,0,0-5.482,8.238,117.935,117.935,0,0,0-6.712,16.508c-1.851,5.415-3.454,11.032-5.26,15.852l-.007.017a27.746,27.746,0,0,1-2.031-2.137,1.643,1.643,0,0,0-2.172-.281l-4.672,3.2a1.647,1.647,0,0,0-.485,2.226c.541.863,1.12,1.727,1.763,2.6a19.263,19.263,0,0,0,3.885,4.042,9.312,9.312,0,0,0,4.054,1.746,7.735,7.735,0,0,0,3.142-.16,8.735,8.735,0,0,0,1.515-.575,6.442,6.442,0,0,0,.982-.63,7.577,7.577,0,0,0,.7-.621,12.345,12.345,0,0,0,2.136-3.115c.417-.817.744-1.559,1.054-2.289.1-.252.188-.492.288-.743,0,.12,0,.253,0,.372,0,1.761-.03,3.43-.061,4.979-.03,1.366-.091,2.55-.152,3.582-.638,7.862-2.52,5.92-1.366,9.562,1.275,4.129,7.893-.334,15.634-.85s22.07,1.427,24.924-3.461C470.606,232.955,468.177,232.894,469.209,220.083Zm-48.067.35c-.072-.032-.165-.107-.243-.15.02,0,.052,0,.07.007C421.472,220.422,421.381,220.549,421.142,220.434Z" transform="translate(-409.741 -175.124)"/></g><g transform="translate(16.238 45.609)"><path class="u" d="M412.212,218.893a162.857,162.857,0,0,1-8.872-16.475l-7.815-16.583L400,183.559l8.672,16.106a157.384,157.384,0,0,0,9.3,15.284Z" transform="translate(-395.524 -183.559)"/></g><g transform="translate(52.32 59.57)"><path class="x" d="M436.052,195.564c0,.85-2.368,20.613-9.5,32.391.061-1.032.121-2.216.152-3.582.03-1.548.061-3.218.061-4.979C428.311,215.478,435.779,196.322,436.052,195.564Z" transform="translate(-426.55 -195.564)"/></g><g transform="translate(63.622 26.323)"><path class="u" d="M460,176.643a16.45,16.45,0,0,0-6.331-2.947,2.269,2.269,0,0,1-1.8-2.18v-4.541h-9.107v6.764c-.267.06-.56.1-.819.169-.149.031-.3.066-.442.1-.266.074-.536.148-.791.231a15.549,15.549,0,0,0-3.791,1.717c-.23.148-.4.318-.623.472l-.031.023S463.961,191.517,460,176.643Z" transform="translate(-436.269 -166.975)"/></g><g transform="translate(59.079 9.445)"><path class="u" d="M433.675,153.761a47.672,47.672,0,0,0-1.312,10.068c-.061,7.021,3.759,11.817,6.884,10.87a5.55,5.55,0,0,1,2.522-.106c2.5.418,1.69,3.045.659,5.363l1.46,1.751,9.142-3.612-1.849-12.867-.474-9.186-8.29-3.58Z" transform="translate(-432.363 -152.462)"/></g><g transform="translate(57.46)"><path class="i" d="M450.529,145.439a5.2,5.2,0,0,0-2.617-.071,4.218,4.218,0,0,0-4.339-.549s-7.9-2.713-11.8,4.769c0,0-4.131,9.519,6.289,15.854,0,0,.92-2.707,1.568-2.682.562.022,1.642-.051,1.662,1.518l-.007.16a4.959,4.959,0,0,1-.062.682,2.5,2.5,0,0,0,.019.341l-.013.308s.457,3.511-.374,4.343-1.414,3.327,2.828,3.826,9.644-.552,11.72-.446c2.5.128,3.35-3.008,2.755-5.084C456.644,163.11,463.936,146.679,450.529,145.439Z" transform="translate(-430.97 -144.34)"/></g><g transform="translate(0 26.272)"><g transform="translate(0 1.372)"><path class="b" d="M400.537,186.631a2.108,2.108,0,0,1-1.436-.563l-17.37-15.994a.525.525,0,0,1-.17-.386v-1.053a.524.524,0,1,1,1.048,0v.823l17.2,15.84a1.027,1.027,0,0,0,.841.279l18.184-1.892v-.58a.524.524,0,0,1,1.048,0v1.053a.525.525,0,0,1-.47.522l-18.653,1.941A2.17,2.17,0,0,1,400.537,186.631Z" transform="translate(-381.561 -168.111)"/></g><g transform="translate(0.131)"><path class="c" d="M400.42,185.672a1.229,1.229,0,0,1-.823-.315v0L381.8,169.116a.391.391,0,0,1,.233-.68l18.682-1.5a.373.373,0,0,1,.288.092L419.6,183a.394.394,0,0,1-.215.69l-18.839,1.979C400.5,185.67,400.461,185.672,400.42,185.672Zm-.294-.9C400.217,184.862,400.341,184.913,400.126,184.775Z" transform="translate(-381.674 -166.931)"/><path class="g" d="M400.42,185.672a1.229,1.229,0,0,1-.823-.315v0L381.8,169.116a.391.391,0,0,1,.233-.68l18.682-1.5a.373.373,0,0,1,.288.092L419.6,183a.394.394,0,0,1-.215.69l-18.839,1.979C400.5,185.67,400.461,185.672,400.42,185.672Zm-.294-.9a.374.374,0,0,0,.337.11L418.4,183l-17.778-15.272L383,169.147l17.128,15.63Z" transform="translate(-381.674 -166.931)"/></g></g><g transform="translate(12.681 39.473)"><path class="u" d="M395.118,182.377a5.529,5.529,0,0,1-1.133-3.228c.129-1.16-.99-1.188-1.389.108a2.425,2.425,0,0,0-.124.933,11.852,11.852,0,0,0,2.743,2.379C395.183,182.511,395.149,182.429,395.118,182.377Z" transform="translate(-392.465 -178.282)"/></g><g class="s" transform="translate(100.433 277.712)"><path class="t" d="M482.177,383.836c1.1.368,2.323,1.124,2.3,2.284a2.812,2.812,0,0,1-1.05,1.839,15.374,15.374,0,0,1-9,4.191c-3.681.385-8.951-1.888-5.249-5.991C472.114,382.911,478.321,382.545,482.177,383.836Z" transform="translate(-467.922 -383.142)"/></g></g></g></svg>